<svg xmlns="http://www.w3.org/2000/svg" version="1.1" xmlns:xlink="http://www.w3.org/1999/xlink" viewBox="0 0 13.389927448753244 13.617500959122527"><g transform="matrix(1,0,0,1,1.1252615759391222,11.022268680058405)"><rect width="13.617500959122527" height="13.617500959122527" x="-1.2390483311237634" y="-11.022268680058405" fill="#262626"></rect><g clip-path="url(#SvgjsClipPath1002)"><g clip-path="url(#be14ea6f0-1580-4df3-9f51-993a019045a27596ee24-164b-4d89-a58f-2c0681642bb0)"><path d=" M 10.317800315261023 -9.87681807778419 C 10.308382681816898 -9.687226246606384 10.22659797032843 -9.527126478056235 10.088803123093319 -9.46739885542375 C 10.033288652264785 -9.142490501601394 10.25485087066081 -8.908784492711627 10.206027876226786 -8.635425290372908 C 10.152743897529756 -8.573219343149862 10.03923663128213 -8.582141311675876 9.97727851651814 -8.52984866281507 C 9.944564631922754 -8.500356600187413 9.943077637168418 -8.43368966870136 9.899211291915513 -8.417580558862722 C 9.856088444039777 -8.424024202798178 9.861045093220897 -8.48697364739839 9.820896234853832 -8.496886945760629 C 9.728789599230772 -8.478851410470437 9.637502634408179 -8.456856543946152 9.547289200056063 -8.430963511651745 C 9.481117933488116 -8.297877481138697 9.289295610178806 -8.31349092605922 9.162157558683102 -8.252524141131456 C 9.106890920313623 -8.111259639469562 9.086816491130092 -7.9278636197681545 9.028080198333829 -7.790316604992099 C 8.556702861209402 -7.672100522022408 8.012958446040635 -7.639634469886078 7.515310868256276 -7.5526452767574375 C 7.4949886066136875 -7.4953959787155116 7.507628062025542 -7.398741319683689 7.493005946941241 -7.334800545247252 C 7.4726836852986525 -7.301590995733754 7.418408376765398 -7.308530304587322 7.392385968564523 -7.282012231468334 C 7.30614027281305 -6.973212987484613 7.641705422374814 -7.054502034054967 7.71060284599237 -6.885728129437862 C 7.712337673205762 -6.822283019919537 7.6080002079432045 -6.8837454697654135 7.604530553516421 -6.8264961717234875 C 7.68358910795527 -6.748676779579917 7.861037148639334 -6.821787355001424 7.973057420132626 -6.813113218934466 C 8.220146381811414 -6.8443401087755165 8.465004851358698 -6.878540988125238 8.709863320905983 -6.912246202556848 C 8.808500639610253 -6.9053068937032815 8.989170502262045 -7.016583667819406 9.039232658991349 -6.899111082226883 C 9.045428470467748 -6.834674642872334 8.98396602062187 -6.850288087792859 8.966865580947008 -6.813113218934466 C 8.9477824815997 -6.650782958252815 8.97231789504624 -6.436655713628469 8.938860513073687 -6.291673725080734 C 8.455835050373627 -6.209145516215102 7.884085567331538 -6.231698269989193 7.392385968564522 -6.159579024403911 C 7.304653278058714 -5.450778191503877 7.487801465301065 -4.776178237953567 7.559920710886348 -4.1722105352342025 C 7.683093443037158 -4.117439561782836 7.938113043405736 -4.12090921620962 8.079129712608575 -4.152383938509726 C 8.079873209985744 -4.195258953926406 8.030554550633608 -4.1786541791696585 8.028819723420217 -4.21830737261861 C 8.045424498176967 -4.267130367052633 8.106886948022842 -4.26242155033057 8.134892015896167 -4.2976137595165165 C 8.153231617866307 -4.368741675265575 8.150753293275747 -4.497366721515617 8.129439701796935 -4.561803160870165 C 8.091273503102318 -4.604926008745901 7.99362751423427 -4.577168773331634 7.95075249881759 -4.6145914746490835 C 7.96487894898378 -4.787578531070141 7.806266175187969 -4.7561038087700345 7.755212688622442 -4.852262802883745 C 8.109860937531515 -5.017319220615011 8.544063405797548 -4.993775137004696 8.905403131101131 -4.852262802883745 C 8.895985497657007 -4.7533776517204185 8.771573603210914 -4.790552520578812 8.732168242221018 -4.726859578601432 C 8.723246273695004 -4.684728060561919 8.726715928121788 -4.627726594979049 8.704411006806751 -4.601456354319117 C 8.671697122211366 -4.578407935626914 8.60156053629853 -4.59947369464667 8.57033364645748 -4.57493828120013 C 8.54084158382982 -4.47630096249586 8.534645772353421 -4.251269089673052 8.609491174988321 -4.211863728683156 C 8.611226002201711 -4.169980043102698 8.56859881924409 -4.181132503760217 8.57033364645748 -4.139000985720704 C 8.569837981539369 -4.092408483418185 8.618165311055279 -4.103313111616647 8.631796096303358 -4.073077551611821 C 8.586690588755172 -3.988318850614684 8.6107303372836 -3.807401155503836 8.603791028430035 -3.6968678787648797 C 8.59858654678986 -3.654488528266312 8.559181185799961 -3.6527537010529194 8.548028725142444 -3.617561491866974 C 8.553233206782618 -3.1942636517994023 8.53662843202587 -2.7456869009081215 8.559181185799961 -2.343206987401251 C 8.560420348095242 -2.289427343786109 8.60651718547965 -2.2889316788679954 8.62064363564584 -2.250765480173378 C 8.622874127777344 -2.206155637543306 8.578016452688214 -2.2175559306598807 8.581486107114998 -2.1714590932754723 C 8.586690588755172 -2.133788559498968 8.635761415648252 -2.1474193447470435 8.642948556960874 -2.1122271355611 C 8.61692614876 -2.012846319479661 8.62857427433563 -1.8695991581453164 8.62609594974507 -1.7424611066496123 C 8.612217332037936 -1.7062775676274438 8.581238274655941 -1.6899206253297496 8.570333646457481 -1.6500195994217428 C 8.561907342849576 -1.2866972144457112 8.64939220089633 -0.9699673317721995 8.62064363564584 -0.626471543520644 C 8.520023657269121 -0.4453060159507398 8.160666591637986 -0.44505818349168536 8.079129712608577 -0.646298140245122 C 8.029315388338329 -0.9754196458714297 8.121509063107144 -1.3451856747829147 8.079129712608577 -1.6433281230272296 C 7.962896289311334 -1.6619155574564264 7.777021945019366 -1.6547284161438025 7.6714453174615285 -1.616810049908242 C 7.669958322707194 -1.3018149944481223 7.718533484682161 -0.933288127831915 7.783217756495765 -0.6529896166396298 C 7.707381024024643 -0.27281462444779336 7.004280337682897 -0.3161853047825858 6.811714516996419 -0.547412989081792 C 6.7770179727285855 -0.9015655730727534 6.838976087492574 -1.2304392462400067 6.85087204552726 -1.5707132125238328 C 6.749012904855261 -1.6180492122035197 6.526707189082071 -1.6041705944963862 6.415430414965946 -1.5774046889183442 C 6.331167378886922 -1.1238712888459457 6.649632088773824 -0.5476608215408483 6.3596681116783556 -0.27008846739817827 C 6.130423087051597 -0.20887385001135783 5.871933832256235 -0.2923933887132151 5.762144052894447 -0.45497148185392255 C 5.719269037477766 -0.8158155422393936 5.839219947660849 -1.1441935504885343 5.818154188641093 -1.5441951394048452 C 5.810719214869414 -1.5863266574443582 5.7651180424031185 -1.5831048354766288 5.756691738795215 -1.6235015263027517 C 5.733395487643955 -1.7734401640316033 5.787422963718154 -1.9741844558669275 5.712081896165143 -2.0591909893231204 C 5.718277707641541 -2.1112358057248732 5.785440304045706 -2.0914092090003944 5.807001727983574 -2.1253622558910603 C 5.814684534214309 -2.178646234588091 5.757683068631438 -2.1551021509777764 5.750991592236928 -2.191285689999945 C 5.760904890599167 -2.2500219827962065 5.8196411833954285 -2.2510133126324297 5.840459109956129 -2.297110150016838 C 5.870942502420012 -2.753865372056964 5.871933832256235 -3.2807571800099264 5.868216345370395 -3.7560998364792493 C 5.8573117171719336 -3.7937703702557544 5.805514733229239 -3.7831135745163484 5.7901491207677696 -3.815579626652678 C 5.776518335519691 -3.9600659502823 5.802292911261511 -4.186336985400387 5.745539278137697 -4.257960566067559 C 5.753965581745599 -4.311740209682701 5.8357502932340655 -4.279026325087315 5.851611570613646 -4.324131832635499 C 5.853098565367983 -4.369980837560851 5.797831926998504 -4.348667246082038 5.795849267326056 -4.390055266744383 C 5.807001727983574 -4.4403652559327424 5.8679685129113395 -4.432434617242952 5.8850689525862 -4.475805297577744 C 5.893990921112215 -4.557342176607153 5.893990921112215 -4.678284416626459 5.8850689525862 -4.759821295655869 C 5.855081225040429 -4.805670300581221 5.76734853453462 -4.783613211725242 5.723234356822661 -4.812609609434788 C 5.736617309611682 -5.006662424875602 5.560160598763842 -4.976426864870775 5.499937311213245 -5.083242654723891 C 5.679120179110701 -5.177171156706099 5.953222878826588 -5.158831554735958 6.147523526726457 -5.235163952125193 C 6.342815504462551 -5.1513965809642785 6.605765743520919 -5.147679094078439 6.795109742239669 -5.056972414063959 C 6.778257135023864 -4.9642830743770325 6.669210853039244 -4.981135681592837 6.605270078602807 -4.944704310111613 C 6.588169638927946 -4.903316289449267 6.58916096876417 -4.840366844849054 6.571812696630253 -4.799474489104822 C 6.530424675967909 -4.760316960573982 6.423361053655736 -4.798978824186711 6.381973032993391 -4.759821295655869 C 6.35446363003818 -4.625248270388486 6.345541661512166 -4.401703392320013 6.437735336280981 -4.350402073295431 C 6.439717995953428 -4.2998442516480155 6.380733870698111 -4.321157843126827 6.381973032993391 -4.271095686397525 C 6.474662372680318 -4.204428754911473 6.6605367169722856 -4.2138463883555985 6.7894095956813825 -4.211863728683151 C 6.808492695028691 -4.859202111737308 6.9058908514376816 -5.516949458071813 6.8900295740581 -6.13975242767943 C 5.832776303725393 -6.1221563230864575 4.722734719613769 -6.053011067009845 3.6518506640329838 -6.007657727002606 C 3.5856793974650443 -5.731572367614271 3.6196324443557097 -5.349414715749988 3.6017885073036804 -5.0304543409449725 C 3.615419292551758 -4.7699824264771635 3.546769701393258 -4.5719642916914545 3.568331125331126 -4.324131832635499 C 3.583201072874483 -4.2755566706605315 3.6374763814077378 -4.2738218434471404 3.651850664032983 -4.224998849013117 C 3.653337658787319 -4.179397676546821 3.601292842385568 -4.196993781139794 3.596088360745392 -4.158827582445177 C 3.7217394174867624 -4.104800106370979 3.9376014893244995 -4.122891875882063 4.0929924411525835 -4.125865865390735 C 4.11405820017234 -4.160810242117624 4.065730870656428 -4.161553739494792 4.070687519837548 -4.198480775894129 C 4.129423812633808 -4.243586283442314 4.133141299519648 -4.408890533632635 4.109845048368388 -4.508767014632187 C 4.077131163773002 -4.529832773651942 4.013933886713733 -4.514467161190472 3.9812200021183477 -4.5352850877511734 C 3.9641195624434875 -4.565520647755999 3.962880400148207 -4.614591474649079 3.9534627667040816 -4.654244668098032 C 3.9167835627637997 -4.707528646795063 3.8119504325831306 -4.680514908757964 3.7916281709405433 -4.753129819261359 C 4.120006179189684 -4.904059786826435 4.542312689421032 -4.908520771089442 4.874656017015069 -4.759821295655869 C 4.856564247503984 -4.692906531710761 4.777505693065136 -4.698606678269049 4.72942619600828 -4.667379788427998 C 4.7093517668247475 -4.635905066127892 4.710590929120027 -4.579399265463133 4.695968814035725 -4.541976564145684 C 4.661767934686003 -4.520910805125928 4.604022971725966 -4.527106616602327 4.561891453686453 -4.515458491026697 C 4.514059789088654 -4.417316837240538 4.532151558599738 -4.209385404092592 4.617653756974043 -4.185345655564164 C 4.621123411400827 -4.141974975229371 4.5812223854928185 -4.1494099490010505 4.578744060902258 -4.1127307450607695 C 4.58964868910072 -4.07282971915276 4.647145819601702 -4.087947499155173 4.662511432063171 -4.05325095488734 C 4.633762866812681 -3.9595702853641885 4.639958678289079 -3.8245015951786936 4.640206510748136 -3.696867878764876 C 4.6216190763189395 -3.6678714810553297 4.573291746803028 -3.674315124990784 4.545286678929704 -3.6572146853159238 C 4.520007768105997 -3.276791860665032 4.538595202535193 -2.8356500835454295 4.550738993028935 -2.4554750913535948 C 4.558669631718725 -2.400951950361285 4.611705777956701 -2.3997127880660036 4.6233539035323306 -2.349898463795758 C 4.623849568450442 -2.309749605428693 4.573539579262084 -2.329576202153169 4.573043914343971 -2.2904186736223293 C 4.586179034673938 -2.255226464436383 4.637976018616632 -2.2656354277167328 4.656811285504885 -2.2376303598434104 C 4.596340165495231 -2.1308145699902923 4.659785275013556 -1.8775297968351055 4.56759160024474 -1.808384540758496 C 4.5239730874508925 -1.5161900715315237 4.663007096981284 -1.0036725462038074 4.483824229083828 -0.8510077514253371 C 4.341816230044765 -0.8093718983039384 4.140328440832274 -0.8081327360086572 4.0761398339367805 -0.9303141383232436 C 4.056808902130417 -1.2078864924659136 4.125458493288916 -1.5211467207126432 4.087292294594299 -1.8150760171530056 C 3.967341384411217 -1.8339112840412586 3.7861758568413126 -1.8220153260065715 3.6632509571495597 -1.8016930643639828 C 3.597327523040675 -1.5164379039905782 3.6404503709164113 -1.102557697367132 3.596088360745395 -0.7915279612519086 C 3.4634979951504588 -0.5786398789228429 2.973285391137779 -0.5952446536795915 2.8312773920987166 -0.7850843173164535 C 2.7482535183149714 -1.076535289166257 2.884561370795747 -1.4386185118470092 2.8927398419445938 -1.7687313473095418 C 2.689269393059653 -1.8029322266592622 2.375265667435759 -1.801197399445872 2.183691176585505 -1.755596226979577 C 2.1410639936278812 -1.3987174859390006 2.294967950701629 -0.9954940750549603 2.1725387159279874 -0.7256045271430249 C 2.1021542975560954 -0.5868183500716881 1.8228471162000335 -0.5808703710543472 1.7147921640516373 -0.6859513336940726 C 1.5911237669827147 -0.9707108291493665 1.7581628443864288 -1.419783244958758 1.7147921640516373 -1.7555962269795788 C 1.6919915778184889 -1.7836012948529003 1.6339987823993947 -1.7702183420638775 1.6087198715756879 -1.7952494204285294 C 1.585175787965373 -1.9129698384801097 1.624581148955269 -2.1332928945808547 1.5752624896031353 -2.2111122867244237 C 1.5819539659976458 -2.257952621486 1.6463904053521938 -2.237134694925299 1.6701823214215656 -2.2639006005033426 C 1.6788564574885245 -2.3204064011681007 1.61665051026548 -2.2933926631310015 1.6253246463324391 -2.3498984637957596 C 1.6572950335506564 -2.3893038247856566 1.719005315855591 -2.393269144130552 1.742549399465906 -2.442339971023631 C 1.7678808484038 -2.8842390166280394 1.7753219082787255 -3.3269820791859672 1.7648543207809424 -3.7694827892682445 C 1.7351144256942286 -3.7915398781242535 1.6731563109302392 -3.7751829358265603 1.6476295676474757 -3.8024445063227157 C 1.6208636620694339 -3.93330004470426 1.6585341958459363 -4.140983645393152 1.597567410918174 -4.23169032540763 C 1.618137505019817 -4.25994322574001 1.6694388240444007 -4.252260419509274 1.697939556835836 -4.271095686397527 C 1.7063658604437384 -4.316696858863823 1.6419294210891904 -4.310501047387423 1.6590298607640515 -4.343710596900922 C 1.7646064883218893 -4.375185319201028 1.8228471162000384 -4.517441150699147 1.7817069279967488 -4.680514908757966 C 1.7494887083194748 -4.732807557618773 1.6409380912529667 -4.694641358924156 1.597567410918174 -4.733303222536885 C 1.576997316816529 -4.76180395532832 1.5789799764889758 -4.817070593697798 1.56956234304485 -4.858706446819198 C 1.5264394951691154 -4.913477420270565 1.4260673492514513 -4.900590132399655 1.3965752866237942 -4.970974550771547 C 1.7708022997982864 -5.136278800961869 2.2342489982329234 -5.102573586530259 2.5911277392734995 -4.944704310111614 C 2.593358231405003 -4.869115410099549 2.4800987976164315 -4.8740720592806674 2.4238408294107288 -4.845571326489233 C 2.4007924107185254 -4.810874782221399 2.404262065145309 -4.745447013030627 2.3846833008798893 -4.707032981876953 C 2.3405691231679295 -4.67109727531384 2.238709982495932 -4.70356332745017 2.18914349068474 -4.674071264822512 C 2.16708640182876 -4.610626155304186 2.1730343808461026 -4.515210658567644 2.177991030027221 -4.4361521041287935 C 2.2104570821635514 -4.377663643791588 2.2905069664386257 -4.375433151660085 2.3232208510340113 -4.317440356240992 C 2.3264426730017385 -4.2696086916431915 2.2791066733220515 -4.281752482136934 2.2729108618456513 -4.244825445737597 C 2.4595287035147866 -4.1784063467106 2.7512275078236454 -4.168988713266474 2.9708070665472217 -4.185345655564168 C 2.9725418937606136 -4.231442492948576 2.917770920309248 -4.2106245663878745 2.9204970773588634 -4.257960566067562 C 2.9519717996589687 -4.295631099844067 3.0126907521276785 -4.29860508935274 3.0434219770506163 -4.337266952965468 C 3.0751445318097788 -4.885224519938186 3.120745704276075 -5.451521688881045 3.1551944160848526 -5.974696009948167 C 2.7844370573371435 -6.036901957171212 2.307359573654429 -5.91868587420152 1.9380892096610551 -6.000966250608098 C 1.9138016286735717 -6.170731485061427 1.9737770837651127 -6.43962970313714 1.870926613256892 -6.515962100526373 C 1.9641116178619304 -6.601464298900678 2.1710517211736535 -6.515218603149206 2.312068390376492 -6.529345053315396 C 2.478363970403038 -6.532319042824067 2.6230981264917164 -6.509766289049975 2.792119863567879 -6.515962100526373 C 2.8166552770144184 -6.511501116263366 2.8235945858679847 -6.527362393642948 2.8481299993145246 -6.522653576920884 C 2.9083532868651214 -6.528353723479171 2.994103317698482 -6.504066142491688 3.0154169091772944 -6.555615293975326 C 3.009716762619008 -6.606173115622742 2.9539544593314173 -6.597498979555783 2.9373496845746687 -6.634921680873232 C 3.0136820819639025 -6.7779210097485185 3.256805724297795 -6.75883791040121 3.194104112156639 -7.044340903233671 C 3.1829516514991205 -7.0859767563550715 3.1219848665713554 -7.06887631668021 3.104884426896495 -7.1038206934070995 C 3.0840665003357945 -7.142978221937941 3.101662604928767 -7.227736922935078 3.0825795055814593 -7.268877111138367 C 2.6857997386328742 -7.3080346396692075 2.2211138779029573 -7.2668944514659195 1.8654742991576598 -7.3546271419717275 C 1.8188817968551398 -7.475569381991034 1.8094641634110142 -7.6406257997223 1.7594020066817122 -7.757354887937655 C 1.689761085686989 -7.789573107614929 1.5854236204244312 -7.780403306629859 1.5138000397572609 -7.810143201716574 C 1.4798469928665936 -7.862683683036437 1.474394678767363 -7.948433713869797 1.435484982695577 -7.995026216172317 C 1.3224733813660605 -8.019809462077912 1.1732782410143763 -8.033688079785046 1.1118157911685 -7.948929378787909 C 1.0587796449305262 -8.079784917169453 0.8830664314598534 -8.065658467003264 0.8216039816139756 -8.18660070702257 C 0.8939710596583159 -8.323156391962401 1.0233396032855235 -8.392549480498069 1.1061156446102147 -8.516713542485103 C 1.1135506183818935 -8.706057541203853 0.9529551849136335 -8.731584284486617 0.9834385773775174 -8.926132764845542 C 1.2672067429965863 -8.865661644835889 1.483068814834322 -8.667395677591124 1.832016917185109 -8.661943363491893 C 2.1519686218263474 -8.61559869364843 2.4937295828645105 -8.595028599546785 2.831277392098722 -8.569501856264022 C 3.0746488668916703 -8.565536536919126 3.294971922992415 -8.551162254293882 3.540326057457811 -8.56281037986951 C 3.5747747692665883 -8.570493186100245 3.6174019522242133 -8.568510526427797 3.651850664032991 -8.576193332658532 C 4.880603996032419 -8.667147845132067 6.146284364431184 -8.707048871040078 7.275161215431062 -8.945959361570019 C 8.372067679212716 -9.177930543246395 9.43378193380843 -9.32291253179413 10.250885551315914 -9.889953198114155 L 10.262038011973432 -9.889953198114155 C 10.270959980499448 -9.888218370900763 10.271455645417559 -9.896149009590554 10.278642786730181 -9.896644674508666 C 10.299708545749938 -9.899618664017337 10.304913027390114 -9.8835095541787 10.317800315261023 -9.87681807778419 M 5.801301581425288 -7.4272420524751235 C 5.745787110596754 -7.385110534435611 5.726951843708501 -7.299360503602251 5.734386817480179 -7.1828792478459516 C 5.700185938130457 -7.032692777658042 5.634758168939685 -6.853757742219642 5.656071760418498 -6.681266350716697 C 5.986184595881031 -6.672096549731626 6.3990734726682525 -6.678292361208026 6.694489763862952 -6.753881261220092 C 6.681850308451098 -6.800473763522612 6.608987565488647 -6.775690517617016 6.605270078602808 -6.832939815658942 C 6.694489763862952 -6.9982440658492635 6.996597531452163 -6.946942746824682 6.928939270129886 -7.275320755073823 C 6.836497762902016 -7.2956430167164115 6.768343836661627 -7.3449616760685466 6.783957281582152 -7.493165486584008 C 6.4697057234992 -7.5077876016683085 6.103161516555442 -7.4711083977280275 5.801301581425289 -7.4272420524751235 M 3.757922956508935 -7.295147351798299 C 3.7378485273254025 -7.2418633731012685 3.7465226633923607 -7.154626347513572 3.735618035193899 -7.090437740618079 C 3.6332632296037892 -7.08795941602752 3.60748865386197 -6.9642910189585985 3.640698203375468 -6.839631292053452 C 3.700921490926065 -6.754376926138204 3.8389641706202324 -6.761564067450827 3.8808478562006896 -6.65474827759771 C 3.870438892920339 -6.612121094640084 3.794354327990161 -6.647065471366975 3.797080485039776 -6.588824843488825 C 4.10017958246521 -6.55660662381155 4.507616145153201 -6.571228738895853 4.785188499295872 -6.634921680873234 C 4.775027368474577 -6.873584338944118 4.709351766824749 -7.104068525866158 4.684816353378209 -7.347935665577217 C 4.408730993989875 -7.369497089515086 4.040204127373668 -7.332074388197636 3.757922956508935 -7.295147351798299 M 7.392385968564524 -6.879284485502406 C 7.424108523323686 -6.868379857303943 7.487305800382955 -6.8649102028771605 7.487305800382955 -6.912246202556847 C 7.467231371199422 -6.952890725842024 7.3571937593785774 -6.966273678631046 7.392385968564524 -6.879284485502406 M 6.850872045527261 -6.8264961717234875 C 6.869955144874569 -6.815591543525025 6.898951542584116 -6.818565533033697 6.912334495373138 -6.832939815658942 C 6.9158041497999205 -6.858466558941705 6.9167954796361455 -6.860201386155097 6.90663434881485 -6.879284485502406 C 6.876150956350968 -6.875566998616566 6.848641553395757 -6.868627689762999 6.850872045527261 -6.8264961717234875 M 2.2116962444588264 -3.7496561925437986 C 2.2049390704695035 -3.7468566856632073 2.1991010419784103 -3.7422206042143964 2.194843637243022 -3.7362732397547775 C 2.165847239533477 -3.346184949200703 2.1663429044515867 -2.846802544202953 2.1779910300272176 -2.448783614959088 C 2.255314757252675 -2.198968496230684 2.5926147340278325 -2.2435783388607557 2.8535823134137526 -2.2639006005033453 C 2.884809203254803 -2.2963666526396764 2.8287990675081565 -2.2990928096892915 2.836977538657004 -2.3432069874012518 C 2.855812805545256 -2.380134023800588 2.9004226481753284 -2.3868255001950986 2.9150447632596297 -2.4289570182346116 C 2.8679565960389977 -2.8782772665030585 2.9514761347408545 -3.305788258374583 2.965354752447989 -3.7033115227003357 C 2.73610972782123 -3.744947375821736 2.4689463369589086 -3.7414777213949524 2.211696244458828 -3.7496561925437994 M 6.393125493650912 -3.7298295958193233 C 6.346285158889335 -3.3008316091934633 6.396842980536751 -2.762539508123929 6.393125493650912 -2.297110150016845 C 6.397834310372975 -2.2497741503371564 6.436991838903816 -2.243082673942646 6.44343548283927 -2.1979771663944625 C 6.446905137266054 -2.16253712474946 6.402543127095038 -2.1573326431092843 6.421130561524235 -2.1253622558910674 C 6.541824969084485 -2.1280884129406825 6.696472423535401 -2.0852133975240026 6.789409595681384 -2.118670779496557 C 6.7601653655127825 -2.6329231320376643 6.762891522562398 -3.1622932645811863 6.783957281582154 -3.690176402370371 C 6.679124151401485 -3.729581763360268 6.514315566129274 -3.73131659057366 6.393125493650912 -3.729829595819324 M 3.5569308322145545 -3.6770412820404053 C 3.545530539097981 -3.254982604268114 3.5554438374602193 -2.8267281150194217 3.5514785181153243 -2.4158218979046477 C 3.566100633199626 -2.380134023800591 3.6067451564848025 -2.3754252070785276 3.6240934286187185 -2.3432069874012535 C 3.6300414076360625 -2.3137149247735946 3.57502260172564 -2.2948796578853417 3.607240821402914 -2.277283553292368 C 3.74900098798292 -2.27356606640653 3.9326448401433836 -2.257704789026948 4.076139833936781 -2.283727197227824 C 4.0815921480360124 -2.3253630503492246 4.0476391011453465 -2.320406401168106 4.048382598522515 -2.356342107731219 C 4.067713530328879 -2.386329835276989 4.095718598202202 -2.4059085995424097 4.1041449018101055 -2.4487836149590905 C 4.092744608693532 -2.856715842565194 4.125458493288917 -3.2817485098461576 4.098444755251818 -3.663658329251385 C 3.9418146411284543 -3.6881937426979254 3.7162871033875344 -3.6990983708963867 3.5569308322145554 -3.677041282040407 M 7.632535621389746 -3.663658329251385 C 7.62583475791636 -3.660882572214975 7.62001097380298 -3.6563434463619 7.615683014173942 -3.6505232089214195 C 7.605769715811703 -3.1940158193403496 7.669710490248139 -2.6537410585983645 7.677145464019818 -2.1516324965510005 C 7.763638992230347 -2.1005790099854735 7.9279519125844455 -2.131558067367468 8.0176672627627 -2.158323972945511 C 8.005027807350848 -2.235399867711914 8.052859471948647 -2.283479364768769 8.107134780481902 -2.316688914282267 C 8.11456975425358 -2.7459347333671813 8.144805314258406 -3.2183034003278337 8.11828724113942 -3.64383173252691 C 7.982722886035812 -3.6817500987624694 7.7936267197761175 -3.656223355479707 7.632535621389746 -3.663658329251385" fill="#e8a941" transform="matrix(1,0,0,1,0,0)" fill-rule="nonzero"></path></g></g><g><path d=" M 0.052734375 1.0920410156250002 Q 0.060791015625 1.0803222656250002 0.071044921875 1.0572509765625002 Q 0.081298828125 1.0341796875000002 0.087158203125 0.9990234375000002 Q 0.09521484375 0.9477539062500002 0.1051025390625 0.8836669921875002 Q 0.114990234375 0.8195800781250002 0.1256103515625 0.7492675781250002 Q 0.13623046875 0.6789550781250002 0.1468505859375 0.6053466796875002 Q 0.157470703125 0.5317382812500002 0.1673583984375 0.4603271484375002 Q 0.17724609375 0.3889160156250002 0.1864013671875 0.3226318359375002 Q 0.195556640625 0.2563476562500002 0.202880859375 0.20141601562500022 Q 0.210205078125 0.14648437500000022 0.2149658203125 0.10583496093750022 Q 0.2197265625 0.06518554687500022 0.221923828125 0.04467773437500022 L 0.31494140625 0.04467773437500022 L 0.775634765625 0.9060058593750002 L 1.232666015625 0.04467773437500022 L 1.30224609375 0.04467773437500022 L 1.42236328125 0.9147949218750002 Q 1.427490234375 0.9558105468750002 1.433349609375 0.9851074218750002 Q 1.439208984375 1.0144042968750002 1.445068359375 1.0352783203125002 Q 1.450927734375 1.0561523437500002 1.4564208984375 1.0697021484375002 Q 1.4619140625 1.0832519531250002 1.467041015625 1.0920410156250002 L 1.467041015625 1.0949707031250002 L 1.282470703125 1.0949707031250002 L 1.282470703125 1.0920410156250002 Q 1.2861328125 1.0839843750000002 1.2894287109375 1.0656738281250002 Q 1.292724609375 1.0473632812500002 1.292724609375 1.0217285156250002 Q 1.292724609375 1.0122070312500002 1.2919921875 1.0023193359375002 Q 1.291259765625 0.9924316406250002 1.289794921875 0.9807128906250002 L 1.19677734375 0.2790527343750002 L 0.7646484375 1.0920410156250002 L 0.714111328125 1.0861816406250002 L 0.279052734375 0.2717285156250002 Q 0.25341796875 0.4453125000000002 0.234375 0.5925292968750002 Q 0.226318359375 0.6555175781250002 0.21826171875 0.7181396484375002 Q 0.210205078125 0.7807617187500002 0.2039794921875 0.8349609375000002 Q 0.19775390625 0.8891601562500002 0.194091796875 0.9305419921875002 Q 0.1904296875 0.9719238281250002 0.1904296875 0.9916992187500002 Q 0.1904296875 1.0166015625000002 0.19189453125 1.0356445312500002 Q 0.193359375 1.0546875000000002 0.19482421875 1.0678710937500002 Q 0.197021484375 1.0832519531250002 0.19921875 1.0949707031250002 L 0.052734375 1.0949707031250002 L 0.052734375 1.0920410156250002 M 1.874267578125 1.0861816406250002 L 1.616455078125 0.5222167968750002 Q 1.6025390625 0.4899902343750002 1.58642578125 0.4603271484375002 Q 1.5703125 0.4306640625000002 1.5560302734375 0.4072265625000002 Q 1.541748046875 0.3837890625000002 1.53076171875 0.3680419921875002 Q 1.519775390625 0.3522949218750002 1.51611328125 0.3479003906250002 L 1.51611328125 0.3449707031250002 L 1.7080078125 0.3449707031250002 L 1.7080078125 0.3479003906250002 Q 1.70654296875 0.3515625000000002 1.705810546875 0.3588867187500002 Q 1.705078125 0.3662109375000002 1.705078125 0.3720703125000002 Q 1.705078125 0.3947753906250002 1.7120361328125 0.4222412109375002 Q 1.718994140625 0.4497070312500002 1.738037109375 0.4907226562500002 L 1.940185546875 0.9301757812500002 L 2.124755859375 0.4965820312500002 Q 2.136474609375 0.4694824218750002 2.1485595703125 0.4372558593750002 Q 2.16064453125 0.4050292968750002 2.16064453125 0.3720703125000002 Q 2.16064453125 0.3625488281250002 2.1591796875 0.3563232421875002 Q 2.15771484375 0.3500976562500002 2.15625 0.3479003906250002 L 2.15625 0.3449707031250002 L 2.2880859375 0.3449707031250002 L 2.2880859375 0.3479003906250002 Q 2.27490234375 0.3618164062500002 2.2547607421875 0.3973388671875002 Q 2.234619140625 0.4328613281250002 2.2119140625 0.4863281250000002 L 1.862548828125 1.3183593750000002 Q 1.850830078125 1.3454589843750002 1.8387451171875 1.3776855468750002 Q 1.82666015625 1.4099121093750002 1.82666015625 1.4428710937500002 Q 1.82666015625 1.4523925781250002 1.828125 1.4586181640625002 Q 1.82958984375 1.4648437500000002 1.8310546875 1.4670410156250002 L 1.8310546875 1.4699707031250002 L 1.694091796875 1.4699707031250002 L 1.694091796875 1.4670410156250002 Q 1.7080078125 1.4531250000000002 1.7281494140625 1.4183349609375002 Q 1.748291015625 1.3835449218750002 1.77099609375 1.3308105468750002 L 1.874267578125 1.0861816406250002 M 2.720947265625 0.4921875000000002 L 2.710693359375 0.4936523437500002 Q 2.70556640625 0.4768066406250002 2.6942138671875 0.4577636718750002 Q 2.682861328125 0.4387207031250002 2.6649169921875 0.4226074218750002 Q 2.64697265625 0.4064941406250002 2.6217041015625 0.3958740234375002 Q 2.596435546875 0.3852539062500002 2.5634765625 0.3852539062500002 Q 2.540771484375 0.3852539062500002 2.5206298828125 0.3918457031250002 Q 2.50048828125 0.3984375000000002 2.4854736328125 0.4112548828125002 Q 2.470458984375 0.4240722656250002 2.461669921875 0.4431152343750002 Q 2.452880859375 0.4621582031250002 2.452880859375 0.4877929687500002 Q 2.452880859375 0.5236816406250002 2.4752197265625 0.5562744140625002 Q 2.49755859375 0.5888671875000002 2.53125 0.6207275390625002 Q 2.56494140625 0.6525878906250002 2.6041259765625 0.6848144531250002 Q 2.643310546875 0.7170410156250002 2.677001953125 0.7521972656250002 Q 2.710693359375 0.7873535156250002 2.7330322265625 0.8272705078125002 Q 2.75537109375 0.8671875000000002 2.75537109375 0.9133300781250002 Q 2.75537109375 0.9506835937500002 2.7421875 0.9862060546875002 Q 2.72900390625 1.0217285156250002 2.7015380859375 1.0495605468750002 Q 2.674072265625 1.0773925781250002 2.6312255859375 1.0946044921875002 Q 2.58837890625 1.1118164062500002 2.529052734375 1.1118164062500002 Q 2.493896484375 1.1118164062500002 2.4635009765625 1.1052246093750002 Q 2.43310546875 1.0986328125000002 2.4078369140625 1.0887451171875002 Q 2.382568359375 1.0788574218750002 2.3624267578125 1.0667724609375002 Q 2.34228515625 1.0546875000000002 2.326904296875 1.0437011718750002 L 2.334228515625 0.9045410156250002 L 2.345947265625 0.9045410156250002 Q 2.353271484375 0.9389648437500002 2.367919921875 0.9675292968750002 Q 2.382568359375 0.9960937500000002 2.4041748046875 1.0162353515625002 Q 2.42578125 1.0363769531250002 2.45361328125 1.0477294921875002 Q 2.4814453125 1.0590820312500002 2.514404296875 1.0590820312500002 Q 2.568603515625 1.0590820312500002 2.6004638671875 1.0290527343750002 Q 2.63232421875 0.9990234375000002 2.63232421875 0.9506835937500002 Q 2.63232421875 0.9118652343750002 2.6107177734375 0.8792724609375002 Q 2.589111328125 0.8466796875000002 2.55615234375 0.8166503906250002 Q 2.523193359375 0.7866210937500002 2.4854736328125 0.7565917968750002 Q 2.44775390625 0.7265625000000002 2.414794921875 0.6925048828125002 Q 2.3818359375 0.6584472656250002 2.3602294921875 0.6177978515625002 Q 2.338623046875 0.5771484375000002 2.338623046875 0.5251464843750002 Q 2.338623046875 0.4826660156250002 2.3543701171875 0.4471435546875002 Q 2.3701171875 0.4116210937500002 2.3983154296875 0.3863525390625002 Q 2.426513671875 0.3610839843750002 2.46533203125 0.3471679687500002 Q 2.504150390625 0.3332519531250002 2.55029296875 0.3332519531250002 Q 2.611083984375 0.3332519531250002 2.6517333984375 0.3460693359375002 Q 2.6923828125 0.3588867187500002 2.713623046875 0.3706054687500002 L 2.720947265625 0.4921875000000002 M 3.185302734375 1.0517578125000002 Q 3.207275390625 1.0517578125000002 3.2288818359375 1.0437011718750002 Q 3.25048828125 1.0356445312500002 3.2706298828125 1.0217285156250002 Q 3.290771484375 1.0078125000000002 3.3094482421875 0.9898681640625002 Q 3.328125 0.9719238281250002 3.34423828125 0.9521484375000002 L 3.3515625 0.9558105468750002 L 3.303955078125 1.0737304687500002 Q 3.295166015625 1.0781250000000002 3.2823486328125 1.0843505859375002 Q 3.26953125 1.0905761718750002 3.2515869140625 1.0960693359375002 Q 3.233642578125 1.1015625000000002 3.20947265625 1.1055908203125002 Q 3.185302734375 1.1096191406250002 3.15234375 1.1096191406250002 Q 3.05419921875 1.1096191406250002 2.9996337890625 1.0565185546875002 Q 2.945068359375 1.0034179687500002 2.945068359375 0.8906250000000002 L 2.945068359375 0.4020996093750002 L 2.822021484375 0.4064941406250002 L 2.822021484375 0.3420410156250002 Q 2.8447265625 0.3435058593750002 2.876220703125 0.3442382812500002 Q 2.90771484375 0.3449707031250002 2.945068359375 0.3449707031250002 Q 2.9443359375 0.2929687500000002 2.9425048828125 0.2530517578125002 Q 2.940673828125 0.21313476562500022 2.9381103515625 0.18347167968750022 Q 2.935546875 0.15380859375000022 2.931884765625 0.13330078125000022 Q 2.92822265625 0.11279296875000022 2.924560546875 0.09887695312500022 L 2.924560546875 0.09594726562500022 L 3.09375 0.09594726562500022 L 3.09375 0.09887695312500022 Q 3.08935546875 0.11279296875000022 3.085693359375 0.13330078125000022 Q 3.08203125 0.15380859375000022 3.0794677734375 0.18310546875000022 Q 3.076904296875 0.21240234375000022 3.0750732421875 0.2523193359375002 Q 3.0732421875 0.2922363281250002 3.072509765625 0.3449707031250002 Q 3.11865234375 0.3442382812500002 3.1629638671875 0.3431396484375002 Q 3.207275390625 0.3420410156250002 3.2435302734375 0.3402099609375002 Q 3.27978515625 0.3383789062500002 3.3050537109375 0.3365478515625002 Q 3.330322265625 0.3347167968750002 3.33837890625 0.3332519531250002 L 3.3251953125 0.4079589843750002 Q 3.287841796875 0.4072265625000002 3.246826171875 0.4057617187500002 Q 3.211669921875 0.4042968750000002 3.166259765625 0.4035644531250002 Q 3.120849609375 0.4028320312500002 3.072509765625 0.4020996093750002 L 3.072509765625 0.9060058593750002 Q 3.072509765625 0.9514160156250002 3.0823974609375 0.9796142578125002 Q 3.09228515625 1.0078125000000002 3.1080322265625 1.0239257812500002 Q 3.123779296875 1.0400390625000002 3.1439208984375 1.0458984375000002 Q 3.1640625 1.0517578125000002 3.185302734375 1.0517578125000002 M 3.49951171875 0.6313476562500002 Q 3.49951171875 0.5690917968750002 3.4976806640625 0.5225830078125002 Q 3.495849609375 0.4760742187500002 3.4932861328125 0.4423828125000002 Q 3.49072265625 0.4086914062500002 3.4866943359375 0.3859863281250002 Q 3.482666015625 0.3632812500000002 3.478271484375 0.3479003906250002 L 3.478271484375 0.3449707031250002 L 3.6474609375 0.3449707031250002 L 3.6474609375 0.3479003906250002 Q 3.64306640625 0.3632812500000002 3.639404296875 0.3859863281250002 Q 3.6357421875 0.4086914062500002 3.6328125 0.4423828125000002 Q 3.6298828125 0.4760742187500002 3.62841796875 0.5225830078125002 Q 3.626953125 0.5690917968750002 3.626953125 0.6313476562500002 L 3.626953125 0.8085937500000002 Q 3.626953125 0.8708496093750002 3.62841796875 0.9173583984375002 Q 3.6298828125 0.9638671875000002 3.6328125 0.9975585937500002 Q 3.6357421875 1.0312500000000002 3.639404296875 1.0539550781250002 Q 3.64306640625 1.0766601562500002 3.6474609375 1.0920410156250002 L 3.6474609375 1.0949707031250002 L 3.478271484375 1.0949707031250002 L 3.478271484375 1.0920410156250002 Q 3.482666015625 1.0766601562500002 3.4866943359375 1.0539550781250002 Q 3.49072265625 1.0312500000000002 3.4932861328125 0.9975585937500002 Q 3.495849609375 0.9638671875000002 3.4976806640625 0.9173583984375002 Q 3.49951171875 0.8708496093750002 3.49951171875 0.8085937500000002 L 3.49951171875 0.6313476562500002 M 3.484130859375 0.12304687500000022 Q 3.484130859375 0.10693359375000022 3.4903564453125 0.09265136718750022 Q 3.49658203125 0.07836914062500022 3.5068359375 0.06774902343750022 Q 3.51708984375 0.05712890625000022 3.5313720703125 0.05090332031250022 Q 3.545654296875 0.04467773437500022 3.5625 0.04467773437500022 Q 3.579345703125 0.04467773437500022 3.5936279296875 0.05090332031250022 Q 3.60791015625 0.05712890625000022 3.6185302734375 0.06774902343750022 Q 3.629150390625 0.07836914062500022 3.6353759765625 0.09265136718750022 Q 3.6416015625 0.10693359375000022 3.6416015625 0.12304687500000022 Q 3.6416015625 0.15673828125000022 3.618896484375 0.17944335937500022 Q 3.59619140625 0.20214843750000022 3.5625 0.20214843750000022 Q 3.545654296875 0.20214843750000022 3.5313720703125 0.19592285156250022 Q 3.51708984375 0.18969726562500022 3.5068359375 0.17907714843750022 Q 3.49658203125 0.16845703125000022 3.4903564453125 0.15417480468750022 Q 3.484130859375 0.13989257812500022 3.484130859375 0.12304687500000022 M 4.46484375 0.9389648437500002 L 4.41064453125 1.0693359375000002 Q 4.390869140625 1.0781250000000002 4.365234375 1.0854492187500002 Q 4.339599609375 1.0927734375000002 4.3121337890625 1.0979003906250002 Q 4.28466796875 1.1030273437500002 4.2568359375 1.1055908203125002 Q 4.22900390625 1.1081542968750002 4.2041015625 1.1081542968750002 Q 4.115478515625 1.1081542968750002 4.0404052734375 1.0821533203125002 Q 3.96533203125 1.0561523437500002 3.9107666015625 1.0063476562500002 Q 3.856201171875 0.9565429687500002 3.825439453125 0.8840332031250002 Q 3.794677734375 0.8115234375000002 3.794677734375 0.7185058593750002 Q 3.794677734375 0.6357421875000002 3.8265380859375 0.5650634765625002 Q 3.8583984375 0.4943847656250002 3.9151611328125 0.4423828125000002 Q 3.971923828125 0.3903808593750002 4.048828125 0.3610839843750002 Q 4.125732421875 0.3317871093750002 4.2158203125 0.3317871093750002 Q 4.2568359375 0.3317871093750002 4.3037109375 0.3387451171875002 Q 4.3505859375 0.3457031250000002 4.38720703125 0.3566894531250002 L 4.439208984375 0.4812011718750002 L 4.430419921875 0.4863281250000002 Q 4.412109375 0.4636230468750002 4.3868408203125 0.4449462890625002 Q 4.361572265625 0.4262695312500002 4.3311767578125 0.4130859375000002 Q 4.30078125 0.3999023437500002 4.26708984375 0.3925781250000002 Q 4.2333984375 0.3852539062500002 4.1982421875 0.3852539062500002 Q 4.14111328125 0.3852539062500002 4.09423828125 0.4053955078125002 Q 4.04736328125 0.4255371093750002 4.013671875 0.4636230468750002 Q 3.97998046875 0.5017089843750002 3.9613037109375 0.5570068359375002 Q 3.942626953125 0.6123046875000002 3.942626953125 0.6826171875000002 Q 3.942626953125 0.7617187500000002 3.9605712890625 0.8298339843750002 Q 3.978515625 0.8979492187500002 4.0140380859375 0.9481201171875002 Q 4.049560546875 0.9982910156250002 4.1033935546875 1.0264892578125002 Q 4.1572265625 1.0546875000000002 4.229736328125 1.0546875000000002 Q 4.263427734375 1.0546875000000002 4.2967529296875 1.0462646484375002 Q 4.330078125 1.0378417968750002 4.3597412109375 1.0220947265625002 Q 4.389404296875 1.0063476562500002 4.414306640625 0.9843750000000002 Q 4.439208984375 0.9624023437500002 4.4560546875 0.9345703125000002 L 4.46484375 0.9389648437500002 M 4.55419921875 0.8789062500000002 Q 4.55419921875 0.8210449218750002 4.5780029296875 0.7785644531250002 Q 4.601806640625 0.7360839843750002 4.641357421875 0.7060546875000002 Q 4.680908203125 0.6760253906250002 4.7314453125 0.6573486328125002 Q 4.781982421875 0.6386718750000002 4.836181640625 0.6280517578125002 Q 4.890380859375 0.6174316406250002 4.943115234375 0.6134033203125002 Q 4.995849609375 0.6093750000000002 5.039794921875 0.6086425781250002 L 5.039794921875 0.5712890625000002 Q 5.039794921875 0.5229492187500002 5.02734375 0.4877929687500002 Q 5.014892578125 0.4526367187500002 4.9921875 0.4295654296875002 Q 4.969482421875 0.4064941406250002 4.9376220703125 0.3951416015625002 Q 4.90576171875 0.3837890625000002 4.86767578125 0.3837890625000002 Q 4.84130859375 0.3837890625000002 4.815673828125 0.3881835937500002 Q 4.7900390625 0.3925781250000002 4.7625732421875 0.4028320312500002 Q 4.735107421875 0.4130859375000002 4.7047119140625 0.4306640625000002 Q 4.67431640625 0.4482421875000002 4.63916015625 0.4753417968750002 L 4.6318359375 0.4709472656250002 L 4.681640625 0.3676757812500002 Q 4.705810546875 0.3566894531250002 4.729248046875 0.3497314453125002 Q 4.752685546875 0.3427734375000002 4.77685546875 0.3383789062500002 Q 4.801025390625 0.3339843750000002 4.8262939453125 0.3321533203125002 Q 4.8515625 0.3303222656250002 4.87939453125 0.3303222656250002 Q 4.956298828125 0.3303222656250002 5.0108642578125 0.3489990234375002 Q 5.0654296875 0.3676757812500002 5.1002197265625 0.4002685546875002 Q 5.135009765625 0.4328613281250002 5.151123046875 0.4764404296875002 Q 5.167236328125 0.5200195312500002 5.167236328125 0.5698242187500002 L 5.167236328125 0.8085937500000002 Q 5.167236328125 0.8708496093750002 5.1690673828125 0.9173583984375002 Q 5.1708984375 0.9638671875000002 5.1734619140625 0.9975585937500002 Q 5.176025390625 1.0312500000000002 5.1800537109375 1.0539550781250002 Q 5.18408203125 1.0766601562500002 5.1884765625 1.0920410156250002 L 5.1884765625 1.0949707031250002 L 5.026611328125 1.0949707031250002 L 5.026611328125 1.0920410156250002 Q 5.0302734375 1.0803222656250002 5.0321044921875 1.0656738281250002 Q 5.033935546875 1.0510253906250002 5.035400390625 1.0305175781250002 Q 5.02001953125 1.0437011718750002 4.9991455078125 1.0576171875000002 Q 4.978271484375 1.0715332031250002 4.9515380859375 1.0828857421875002 Q 4.9248046875 1.0942382812500002 4.8922119140625 1.1011962890625002 Q 4.859619140625 1.1081542968750002 4.82080078125 1.1081542968750002 Q 4.693359375 1.1081542968750002 4.623779296875 1.0484619140625002 Q 4.55419921875 0.9887695312500002 4.55419921875 0.8789062500000002 M 5.039794921875 0.6657714843750002 Q 4.97314453125 0.6665039062500002 4.91162109375 0.6734619140625002 Q 4.85009765625 0.6804199218750002 4.8028564453125 0.7023925781250002 Q 4.755615234375 0.7243652343750002 4.7274169921875 0.7650146484375002 Q 4.69921875 0.8056640625000002 4.69921875 0.8730468750000002 Q 4.69921875 0.9594726562500002 4.742431640625 1.0048828125000002 Q 4.78564453125 1.0502929687500002 4.86181640625 1.0502929687500002 Q 4.89697265625 1.0502929687500002 4.9259033203125 1.0404052734375002 Q 4.954833984375 1.0305175781250002 4.9771728515625 1.0155029296875002 Q 4.99951171875 1.0004882812500002 5.014892578125 0.9825439453125002 Q 5.0302734375 0.9645996093750002 5.038330078125 0.9477539062500002 Q 5.039794921875 0.9199218750000002 5.039794921875 0.8858642578125002 Q 5.039794921875 0.8518066406250002 5.039794921875 0.8085937500000002 L 5.039794921875 0.6657714843750002 M 5.39208984375 0.2863769531250002 Q 5.39208984375 0.22412109375000022 5.3902587890625 0.17761230468750022 Q 5.388427734375 0.13110351562500022 5.3858642578125 0.09741210937500022 Q 5.38330078125 0.06372070312500022 5.3792724609375 0.04101562500000022 Q 5.375244140625 0.018310546875000222 5.370849609375 0.002929687500000222 L 5.370849609375 2.220446049250313e-16 L 5.5400390625 2.220446049250313e-16 L 5.5400390625 0.002929687500000222 Q 5.53564453125 0.018310546875000222 5.531982421875 0.04101562500000022 Q 5.5283203125 0.06372070312500022 5.525390625 0.09741210937500022 Q 5.5224609375 0.13110351562500022 5.52099609375 0.17761230468750022 Q 5.51953125 0.22412109375000022 5.51953125 0.2863769531250002 L 5.51953125 0.8085937500000002 Q 5.51953125 0.8708496093750002 5.52099609375 0.9173583984375002 Q 5.5224609375 0.9638671875000002 5.525390625 0.9975585937500002 Q 5.5283203125 1.0312500000000002 5.531982421875 1.0539550781250002 Q 5.53564453125 1.0766601562500002 5.5400390625 1.0920410156250002 L 5.5400390625 1.0949707031250002 L 5.370849609375 1.0949707031250002 L 5.370849609375 1.0920410156250002 Q 5.375244140625 1.0766601562500002 5.3792724609375 1.0539550781250002 Q 5.38330078125 1.0312500000000002 5.3858642578125 0.9975585937500002 Q 5.388427734375 0.9638671875000002 5.3902587890625 0.9173583984375002 Q 5.39208984375 0.8708496093750002 5.39208984375 0.8085937500000002 L 5.39208984375 0.2863769531250002 M 6.916259765625 0.5925292968750002 Q 6.886962890625 0.5917968750000002 6.843017578125 0.5914306640625002 Q 6.799072265625 0.5910644531250002 6.7474365234375 0.5903320312500002 Q 6.69580078125 0.5895996093750002 6.6397705078125 0.5892333984375002 Q 6.583740234375 0.5888671875000002 6.5302734375 0.5885009765625002 Q 6.476806640625 0.5881347656250002 6.428466796875 0.5888671875000002 Q 6.380126953125 0.5895996093750002 6.34423828125 0.5910644531250002 L 6.34423828125 0.8085937500000002 Q 6.34423828125 0.8708496093750002 6.3460693359375 0.9173583984375002 Q 6.347900390625 0.9638671875000002 6.3504638671875 0.9975585937500002 Q 6.35302734375 1.0312500000000002 6.3570556640625 1.0539550781250002 Q 6.361083984375 1.0766601562500002 6.365478515625 1.0920410156250002 L 6.365478515625 1.0949707031250002 L 6.189697265625 1.0949707031250002 L 6.189697265625 1.0920410156250002 Q 6.194091796875 1.0766601562500002 6.1981201171875 1.0539550781250002 Q 6.2021484375 1.0312500000000002 6.205078125 0.9975585937500002 Q 6.2080078125 0.9638671875000002 6.20947265625 0.9173583984375002 Q 6.2109375 0.8708496093750002 6.2109375 0.8085937500000002 L 6.2109375 0.3317871093750002 Q 6.2109375 0.2695312500000002 6.20947265625 0.22302246093750022 Q 6.2080078125 0.17651367187500022 6.205078125 0.14245605468750022 Q 6.2021484375 0.10839843750000022 6.1981201171875 0.08569335937500022 Q 6.194091796875 0.06298828125000022 6.189697265625 0.04760742187500022 L 6.189697265625 0.04467773437500022 L 6.365478515625 0.04467773437500022 L 6.365478515625 0.04760742187500022 Q 6.361083984375 0.06298828125000022 6.3570556640625 0.08569335937500022 Q 6.35302734375 0.10839843750000022 6.3504638671875 0.14245605468750022 Q 6.347900390625 0.17651367187500022 6.3460693359375 0.22302246093750022 Q 6.34423828125 0.2695312500000002 6.34423828125 0.3317871093750002 L 6.34423828125 0.5192871093750002 Q 6.38232421875 0.5207519531250002 6.4306640625 0.5211181640625002 Q 6.47900390625 0.5214843750000002 6.53173828125 0.5211181640625002 Q 6.58447265625 0.5207519531250002 6.6390380859375 0.5200195312500002 Q 6.693603515625 0.5192871093750002 6.7445068359375 0.5181884765625002 Q 6.79541015625 0.5170898437500002 6.8397216796875 0.5156250000000002 Q 6.884033203125 0.5141601562500002 6.916259765625 0.5126953125000002 L 6.916259765625 0.3317871093750002 Q 6.916259765625 0.2695312500000002 6.9144287109375 0.22302246093750022 Q 6.91259765625 0.17651367187500022 6.9100341796875 0.14245605468750022 Q 6.907470703125 0.10839843750000022 6.9034423828125 0.08569335937500022 Q 6.8994140625 0.06298828125000022 6.89501953125 0.04760742187500022 L 6.89501953125 0.04467773437500022 L 7.07080078125 0.04467773437500022 L 7.07080078125 0.04760742187500022 Q 7.06640625 0.06298828125000022 7.0623779296875 0.08569335937500022 Q 7.058349609375 0.10839843750000022 7.055419921875 0.14245605468750022 Q 7.052490234375 0.17651367187500022 7.051025390625 0.22302246093750022 Q 7.049560546875 0.2695312500000002 7.049560546875 0.3317871093750002 L 7.049560546875 0.8085937500000002 Q 7.049560546875 0.8708496093750002 7.051025390625 0.9173583984375002 Q 7.052490234375 0.9638671875000002 7.055419921875 0.9975585937500002 Q 7.058349609375 1.0312500000000002 7.0623779296875 1.0539550781250002 Q 7.06640625 1.0766601562500002 7.07080078125 1.0920410156250002 L 7.07080078125 1.0949707031250002 L 6.89501953125 1.0949707031250002 L 6.89501953125 1.0920410156250002 Q 6.8994140625 1.0766601562500002 6.9034423828125 1.0539550781250002 Q 6.907470703125 1.0312500000000002 6.9100341796875 0.9975585937500002 Q 6.91259765625 0.9638671875000002 6.9144287109375 0.9173583984375002 Q 6.916259765625 0.8708496093750002 6.916259765625 0.8085937500000002 L 6.916259765625 0.5925292968750002 M 7.61572265625 1.1081542968750002 Q 7.534423828125 1.1081542968750002 7.46337890625 1.0825195312500002 Q 7.392333984375 1.0568847656250002 7.339599609375 1.0074462890625002 Q 7.286865234375 0.9580078125000002 7.2564697265625 0.8851318359375002 Q 7.22607421875 0.8122558593750002 7.22607421875 0.7185058593750002 Q 7.22607421875 0.6357421875000002 7.25390625 0.5650634765625002 Q 7.28173828125 0.4943847656250002 7.330810546875 0.4423828125000002 Q 7.3798828125 0.3903808593750002 7.4454345703125 0.3610839843750002 Q 7.510986328125 0.3317871093750002 7.587158203125 0.3317871093750002 Q 7.66259765625 0.3317871093750002 7.72705078125 0.3577880859375002 Q 7.79150390625 0.3837890625000002 7.8387451171875 0.4332275390625002 Q 7.885986328125 0.4826660156250002 7.9134521484375 0.5555419921875002 Q 7.94091796875 0.6284179687500002 7.943115234375 0.7214355468750002 Q 7.8603515625 0.7199707031250002 7.777587890625 0.7192382812500002 Q 7.69482421875 0.7185058593750002 7.60546875 0.7185058593750002 Q 7.541748046875 0.7185058593750002 7.4813232421875 0.7192382812500002 Q 7.4208984375 0.7199707031250002 7.37255859375 0.7214355468750002 Q 7.376953125 0.7976074218750002 7.3963623046875 0.8591308593750002 Q 7.415771484375 0.9206542968750002 7.4498291015625 0.9642333984375002 Q 7.48388671875 1.0078125000000002 7.5325927734375 1.0312500000000002 Q 7.581298828125 1.0546875000000002 7.642822265625 1.0546875000000002 Q 7.685302734375 1.0546875000000002 7.7230224609375 1.0447998046875002 Q 7.7607421875 1.0349121093750002 7.79150390625 1.0173339843750002 Q 7.822265625 0.9997558593750002 7.846435546875 0.9759521484375002 Q 7.87060546875 0.9521484375000002 7.887451171875 0.9243164062500002 L 7.896240234375 0.9287109375000002 L 7.842041015625 1.0590820312500002 Q 7.802490234375 1.0795898437500002 7.74755859375 1.0938720703125002 Q 7.692626953125 1.1081542968750002 7.61572265625 1.1081542968750002 M 7.518310546875 0.6613769531250002 Q 7.591552734375 0.6613769531250002 7.6651611328125 0.6610107421875002 Q 7.73876953125 0.6606445312500002 7.798828125 0.6584472656250002 Q 7.792236328125 0.5947265625000002 7.77392578125 0.5441894531250002 Q 7.755615234375 0.4936523437500002 7.72705078125 0.4584960937500002 Q 7.698486328125 0.4233398437500002 7.65966796875 0.4042968750000002 Q 7.620849609375 0.3852539062500002 7.573974609375 0.3852539062500002 Q 7.531494140625 0.3852539062500002 7.4959716796875 0.4039306640625002 Q 7.46044921875 0.4226074218750002 7.43408203125 0.4577636718750002 Q 7.40771484375 0.4929199218750002 7.3916015625 0.5438232421875002 Q 7.37548828125 0.5947265625000002 7.37255859375 0.6599121093750002 Q 7.405517578125 0.6613769531250002 7.442138671875 0.6613769531250002 Q 7.478759765625 0.6613769531250002 7.518310546875 0.6613769531250002 M 8.041259765625 0.8789062500000002 Q 8.041259765625 0.8210449218750002 8.0650634765625 0.7785644531250002 Q 8.0888671875 0.7360839843750002 8.12841796875 0.7060546875000002 Q 8.16796875 0.6760253906250002 8.218505859375 0.6573486328125002 Q 8.26904296875 0.6386718750000002 8.3232421875 0.6280517578125002 Q 8.37744140625 0.6174316406250002 8.43017578125 0.6134033203125002 Q 8.48291015625 0.6093750000000002 8.52685546875 0.6086425781250002 L 8.52685546875 0.5712890625000002 Q 8.52685546875 0.5229492187500002 8.514404296875 0.4877929687500002 Q 8.501953125 0.4526367187500002 8.479248046875 0.4295654296875002 Q 8.45654296875 0.4064941406250002 8.4246826171875 0.3951416015625002 Q 8.392822265625 0.3837890625000002 8.354736328125 0.3837890625000002 Q 8.328369140625 0.3837890625000002 8.302734375 0.3881835937500002 Q 8.277099609375 0.3925781250000002 8.2496337890625 0.4028320312500002 Q 8.22216796875 0.4130859375000002 8.1917724609375 0.4306640625000002 Q 8.161376953125 0.4482421875000002 8.126220703125 0.4753417968750002 L 8.118896484375 0.4709472656250002 L 8.168701171875 0.3676757812500002 Q 8.19287109375 0.3566894531250002 8.21630859375 0.3497314453125002 Q 8.23974609375 0.3427734375000002 8.263916015625 0.3383789062500002 Q 8.2880859375 0.3339843750000002 8.3133544921875 0.3321533203125002 Q 8.338623046875 0.3303222656250002 8.366455078125 0.3303222656250002 Q 8.443359375 0.3303222656250002 8.4979248046875 0.3489990234375002 Q 8.552490234375 0.3676757812500002 8.5872802734375 0.4002685546875002 Q 8.6220703125 0.4328613281250002 8.63818359375 0.4764404296875002 Q 8.654296875 0.5200195312500002 8.654296875 0.5698242187500002 L 8.654296875 0.8085937500000002 Q 8.654296875 0.8708496093750002 8.6561279296875 0.9173583984375002 Q 8.657958984375 0.9638671875000002 8.6605224609375 0.9975585937500002 Q 8.6630859375 1.0312500000000002 8.6671142578125 1.0539550781250002 Q 8.671142578125 1.0766601562500002 8.675537109375 1.0920410156250002 L 8.675537109375 1.0949707031250002 L 8.513671875 1.0949707031250002 L 8.513671875 1.0920410156250002 Q 8.517333984375 1.0803222656250002 8.5191650390625 1.0656738281250002 Q 8.52099609375 1.0510253906250002 8.5224609375 1.0305175781250002 Q 8.507080078125 1.0437011718750002 8.4862060546875 1.0576171875000002 Q 8.46533203125 1.0715332031250002 8.4385986328125 1.0828857421875002 Q 8.411865234375 1.0942382812500002 8.3792724609375 1.1011962890625002 Q 8.3466796875 1.1081542968750002 8.307861328125 1.1081542968750002 Q 8.180419921875 1.1081542968750002 8.11083984375 1.0484619140625002 Q 8.041259765625 0.9887695312500002 8.041259765625 0.8789062500000002 M 8.52685546875 0.6657714843750002 Q 8.460205078125 0.6665039062500002 8.398681640625 0.6734619140625002 Q 8.337158203125 0.6804199218750002 8.2899169921875 0.7023925781250002 Q 8.24267578125 0.7243652343750002 8.2144775390625 0.7650146484375002 Q 8.186279296875 0.8056640625000002 8.186279296875 0.8730468750000002 Q 8.186279296875 0.9594726562500002 8.2294921875 1.0048828125000002 Q 8.272705078125 1.0502929687500002 8.348876953125 1.0502929687500002 Q 8.384033203125 1.0502929687500002 8.4129638671875 1.0404052734375002 Q 8.44189453125 1.0305175781250002 8.4642333984375 1.0155029296875002 Q 8.486572265625 1.0004882812500002 8.501953125 0.9825439453125002 Q 8.517333984375 0.9645996093750002 8.525390625 0.9477539062500002 Q 8.52685546875 0.9199218750000002 8.52685546875 0.8858642578125002 Q 8.52685546875 0.8518066406250002 8.52685546875 0.8085937500000002 L 8.52685546875 0.6657714843750002 M 8.943603515625 0.3449707031250002 L 8.943603515625 0.3479003906250002 Q 8.942138671875 0.3515625000000002 8.94140625 0.3588867187500002 Q 8.940673828125 0.3662109375000002 8.940673828125 0.3720703125000002 Q 8.940673828125 0.3947753906250002 8.947265625 0.4222412109375002 Q 8.953857421875 0.4497070312500002 8.970703125 0.4907226562500002 L 9.145751953125 0.9074707031250002 L 9.322998046875 0.4965820312500002 Q 9.333984375 0.4694824218750002 9.346435546875 0.4372558593750002 Q 9.35888671875 0.4050292968750002 9.35888671875 0.3720703125000002 Q 9.35888671875 0.3625488281250002 9.357421875 0.3563232421875002 Q 9.35595703125 0.3500976562500002 9.3544921875 0.3479003906250002 L 9.3544921875 0.3449707031250002 L 9.486328125 0.3449707031250002 L 9.486328125 0.3479003906250002 Q 9.47314453125 0.3618164062500002 9.4530029296875 0.3973388671875002 Q 9.432861328125 0.4328613281250002 9.41015625 0.4863281250000002 L 9.139892578125 1.1052246093750002 L 9.0966796875 1.1052246093750002 L 8.84619140625 0.5222167968750002 Q 8.8330078125 0.4899902343750002 8.8179931640625 0.4603271484375002 Q 8.802978515625 0.4306640625000002 8.7894287109375 0.4072265625000002 Q 8.77587890625 0.3837890625000002 8.765625 0.3680419921875002 Q 8.75537109375 0.3522949218750002 8.751708984375 0.3479003906250002 L 8.751708984375 0.3449707031250002 L 8.943603515625 0.3449707031250002 M 9.916259765625 1.1081542968750002 Q 9.8349609375 1.1081542968750002 9.763916015625 1.0825195312500002 Q 9.69287109375 1.0568847656250002 9.64013671875 1.0074462890625002 Q 9.58740234375 0.9580078125000002 9.5570068359375 0.8851318359375002 Q 9.526611328125 0.8122558593750002 9.526611328125 0.7185058593750002 Q 9.526611328125 0.6357421875000002 9.554443359375 0.5650634765625002 Q 9.582275390625 0.4943847656250002 9.63134765625 0.4423828125000002 Q 9.680419921875 0.3903808593750002 9.7459716796875 0.3610839843750002 Q 9.8115234375 0.3317871093750002 9.8876953125 0.3317871093750002 Q 9.963134765625 0.3317871093750002 10.027587890625 0.3577880859375002 Q 10.092041015625 0.3837890625000002 10.1392822265625 0.4332275390625002 Q 10.1865234375 0.4826660156250002 10.2139892578125 0.5555419921875002 Q 10.241455078125 0.6284179687500002 10.24365234375 0.7214355468750002 Q 10.160888671875 0.7199707031250002 10.078125 0.7192382812500002 Q 9.995361328125 0.7185058593750002 9.906005859375 0.7185058593750002 Q 9.84228515625 0.7185058593750002 9.7818603515625 0.7192382812500002 Q 9.721435546875 0.7199707031250002 9.673095703125 0.7214355468750002 Q 9.677490234375 0.7976074218750002 9.6968994140625 0.8591308593750002 Q 9.71630859375 0.9206542968750002 9.7503662109375 0.9642333984375002 Q 9.784423828125 1.0078125000000002 9.8331298828125 1.0312500000000002 Q 9.8818359375 1.0546875000000002 9.943359375 1.0546875000000002 Q 9.98583984375 1.0546875000000002 10.0235595703125 1.0447998046875002 Q 10.061279296875 1.0349121093750002 10.092041015625 1.0173339843750002 Q 10.122802734375 0.9997558593750002 10.14697265625 0.9759521484375002 Q 10.171142578125 0.9521484375000002 10.18798828125 0.9243164062500002 L 10.19677734375 0.9287109375000002 L 10.142578125 1.0590820312500002 Q 10.10302734375 1.0795898437500002 10.048095703125 1.0938720703125002 Q 9.9931640625 1.1081542968750002 9.916259765625 1.1081542968750002 M 9.81884765625 0.6613769531250002 Q 9.89208984375 0.6613769531250002 9.9656982421875 0.6610107421875002 Q 10.039306640625 0.6606445312500002 10.099365234375 0.6584472656250002 Q 10.0927734375 0.5947265625000002 10.074462890625 0.5441894531250002 Q 10.05615234375 0.4936523437500002 10.027587890625 0.4584960937500002 Q 9.9990234375 0.4233398437500002 9.960205078125 0.4042968750000002 Q 9.92138671875 0.3852539062500002 9.87451171875 0.3852539062500002 Q 9.83203125 0.3852539062500002 9.7965087890625 0.4039306640625002 Q 9.760986328125 0.4226074218750002 9.734619140625 0.4577636718750002 Q 9.708251953125 0.4929199218750002 9.692138671875 0.5438232421875002 Q 9.676025390625 0.5947265625000002 9.673095703125 0.6599121093750002 Q 9.7060546875 0.6613769531250002 9.74267578125 0.6613769531250002 Q 9.779296875 0.6613769531250002 9.81884765625 0.6613769531250002 M 10.904296875 0.6013183593750002 Q 10.904296875 0.5046386718750002 10.865478515625 0.4592285156250002 Q 10.82666015625 0.4138183593750002 10.761474609375 0.4138183593750002 Q 10.738037109375 0.4138183593750002 10.708740234375 0.4237060546875002 Q 10.679443359375 0.4335937500000002 10.648681640625 0.4500732421875002 Q 10.617919921875 0.4665527343750002 10.587158203125 0.4885253906250002 Q 10.556396484375 0.5104980468750002 10.529296875 0.5354003906250002 L 10.52783203125 0.6313476562500002 L 10.52783203125 0.8085937500000002 Q 10.52783203125 0.8708496093750002 10.529296875 0.9173583984375002 Q 10.53076171875 0.9638671875000002 10.53369140625 0.9975585937500002 Q 10.53662109375 1.0312500000000002 10.540283203125 1.0539550781250002 Q 10.5439453125 1.0766601562500002 10.54833984375 1.0920410156250002 L 10.54833984375 1.0949707031250002 L 10.379150390625 1.0949707031250002 L 10.379150390625 1.0920410156250002 Q 10.383544921875 1.0766601562500002 10.3875732421875 1.0539550781250002 Q 10.3916015625 1.0312500000000002 10.3941650390625 0.9975585937500002 Q 10.396728515625 0.9638671875000002 10.3985595703125 0.9173583984375002 Q 10.400390625 0.8708496093750002 10.400390625 0.8085937500000002 L 10.400390625 0.6313476562500002 Q 10.400390625 0.5690917968750002 10.3985595703125 0.5225830078125002 Q 10.396728515625 0.4760742187500002 10.3941650390625 0.4423828125000002 Q 10.3916015625 0.4086914062500002 10.3875732421875 0.3859863281250002 Q 10.383544921875 0.3632812500000002 10.379150390625 0.3479003906250002 L 10.379150390625 0.3449707031250002 L 10.54833984375 0.3449707031250002 L 10.54833984375 0.3479003906250002 Q 10.54248046875 0.3662109375000002 10.5391845703125 0.3944091796875002 Q 10.535888671875 0.4226074218750002 10.5322265625 0.4680175781250002 Q 10.562255859375 0.4431152343750002 10.5970458984375 0.4182128906250002 Q 10.6318359375 0.3933105468750002 10.669189453125 0.3739013671875002 Q 10.70654296875 0.3544921875000002 10.745361328125 0.3424072265625002 Q 10.7841796875 0.3303222656250002 10.821533203125 0.3303222656250002 Q 10.878662109375 0.3303222656250002 10.9185791015625 0.3500976562500002 Q 10.95849609375 0.3698730468750002 10.9837646484375 0.4020996093750002 Q 11.009033203125 0.4343261718750002 11.0203857421875 0.4757080078125002 Q 11.03173828125 0.5170898437500002 11.03173828125 0.5595703125000002 L 11.03173828125 0.8085937500000002 Q 11.03173828125 0.8708496093750002 11.033203125 0.9173583984375002 Q 11.03466796875 0.9638671875000002 11.03759765625 0.9975585937500002 Q 11.04052734375 1.0312500000000002 11.044189453125 1.0539550781250002 Q 11.0478515625 1.0766601562500002 11.05224609375 1.0920410156250002 L 11.05224609375 1.0949707031250002 L 10.883056640625 1.0949707031250002 L 10.883056640625 1.0920410156250002 Q 10.887451171875 1.0766601562500002 10.8914794921875 1.0539550781250002 Q 10.8955078125 1.0312500000000002 10.8980712890625 0.9975585937500002 Q 10.900634765625 0.9638671875000002 10.9024658203125 0.9173583984375002 Q 10.904296875 0.8708496093750002 10.904296875 0.8085937500000002 L 10.904296875 0.6013183593750002" fill="#ffffff" fill-rule="nonzero"></path></g><g></g></g><defs><clipPath id="SvgjsClipPath1002"><path d=" M 0.8216039816139773 -9.897007104119282 h 9.496196333647045 v 9.647007104119282 h -9.496196333647045 Z"></path></clipPath><clipPath id="be14ea6f0-1580-4df3-9f51-993a019045a27596ee24-164b-4d89-a58f-2c0681642bb0"><path d=" M 0.5735236900989602 -10.144972798482733 L 10.56563277431698 -10.144972798482733 L 10.56563277431698 -0.00218157915869277 L 0.5735236900989602 -0.00218157915869277 Z"></path></clipPath></defs></svg>